<svg xmlns="http://www.w3.org/2000/svg" viewBox="0 0 600 420" role="img" aria-label="Degustazione di vini">
  <rect width="600" height="420" fill="#591026"/>
  <circle cx="300" cy="140" r="120" fill="#7d1530" opacity=".5"/>
  <!-- table -->
  <rect y="330" width="600" height="90" fill="#6e4a2f"/>
  <rect y="330" width="600" height="10" fill="#8a6240"/>
  <!-- bottle -->
  <g fill="#2b2620">
    <rect x="270" y="150" width="60" height="180" rx="10"/>
    <rect x="288" y="105" width="24" height="60" rx="8"/>
  </g>
  <rect x="286" y="100" width="28" height="16" rx="4" fill="#e9b44c"/>
  <rect x="278" y="210" width="44" height="70" rx="4" fill="#f3ecdf"/>
  <text x="300" y="242" font-family="Georgia, serif" font-size="26" font-style="italic" fill="#7d1530" text-anchor="middle">30</text>
  <text x="300" y="264" font-family="Georgia, serif" font-size="9" fill="#5a5248" text-anchor="middle" letter-spacing="1">TRENTA QUERCE</text>
  <!-- glasses -->
  <g>
    <path d="M150 220 q0 55 38 60 v40 h-28 v10 h70 v-10 h-28 v-40 q38 -5 38 -60 z" fill="#fff3d6" opacity=".25"/>
    <path d="M155 225 q2 45 33 51 q31 -6 33 -51 z" fill="#8a2f43"/>
    <path d="M410 220 q0 55 38 60 v40 h-28 v10 h70 v-10 h-28 v-40 q38 -5 38 -60 z" fill="#fff3d6" opacity=".25"/>
    <path d="M415 225 q2 45 33 51 q31 -6 33 -51 z" fill="#c96b7e"/>
  </g>
  <!-- cheese board -->
  <ellipse cx="520" cy="352" rx="55" ry="14" fill="#d8c3a5"/>
  <path d="M495 340 l40 -14 l12 16 z" fill="#e9b44c"/>
  <circle cx="540" cy="342" r="8" fill="#f3ecdf"/>
</svg>
