<svg xmlns="http://www.w3.org/2000/svg" viewBox="0 0 1224 1056" role="img" aria-label="Trenta Querce">
  <rect width="1224" height="1056" fill="#a41a3b"/>
  <path d="M742 998C742 998 740 999 738 998C736 998 735 998 734 998C732 998 731 998 729 997C728 997 727 996 725 996C724 996 722 996 721 995C720 995 718 995 717 995C716 995 714 995 713 996C712 996 710 996 708 995C707 995 706 995 704 994C703 994 702 993 700 993C699 993 697 993 696 992C695 992 693 992 692 992C690 991 689 992 687 992C685 991 684 991 682 991C681 991 679 991 678 990C677 990 676 990 674 989C673 988 672 988 671 987C670 987 669 986 668 986C667 985 665 985 664 984C663 984 661 984 660 984C659 983 657 983 656 983C654 982 653 982 652 982C651 981 650 980 649 980C648 979 647 978 646 978C645 977 644 977 642 976C641 976 640 976 638 975C637 975 636 974 635 974C634 973 633 972 632 972C631 971 630 970 629 969C628 968 627 968 626 967C625 967 624 966 623 966C622 965 621 964 620 963C620 962 619 961 618 961C617 960 616 959 615 959C614 958 613 957 612 956C611 956 610 955 610 954C609 953 608 952 607 951C607 950 606 949 605 948C604 947 604 946 603 946C602 945 601 944 601 943C600 942 600 941 599 940C598 938 598 937 597 936C596 936 595 935 594 934C594 933 593 932 593 931C592 930 592 928 592 927C591 926 591 924 590 923C590 922 589 921 588 920C588 919 587 918 586 917C586 916 585 915 585 914C584 912 584 911 584 910C584 908 584 906 584 905C583 904 583 902 583 901C582 900 582 898 582 897C582 895 581 894 581 893C581 891 581 889 580 888C580 887 580 885 580 884C579 883 579 882 578 880C578 879 578 877 578 876C577 875 577 873 577 872C576 870 576 868 576 867C577 866 577 864 577 863C578 861 577 860 578 858C578 856 578 855 578 853C578 851 578 850 578 848C577 846 577 845 577 844C577 842 576 841 575 840C574 840 573 839 572 838C571 837 570 837 569 836C568 836 567 835 566 835C565 834 564 833 562 833C561 833 560 832 559 832C557 831 556 831 554 831C553 831 552 830 551 830C550 829 549 828 548 828C547 827 546 826 545 826C544 825 543 825 541 824C540 824 539 824 537 823C536 823 535 822 534 822C532 821 532 821 531 820C530 819 529 818 528 818C527 817 526 817 524 816C523 816 522 816 520 815C519 815 518 814 517 814C516 813 515 812 514 812C513 811 512 810 511 809C510 808 509 808 508 808C507 807 506 807 505 806C504 805 503 804 502 804C501 803 500 802 499 801C498 801 497 800 496 799C495 799 494 798 493 798C492 797 491 796 490 796C489 795 488 794 487 794C486 793 485 792 484 791C483 791 482 790 481 789C480 788 480 788 479 787C478 786 477 785 476 784C475 784 474 783 473 782C472 782 472 780 471 780C470 779 469 778 468 777C467 776 466 776 465 775C464 774 463 774 462 773C462 772 461 771 460 770C459 770 458 769 458 768C457 767 456 766 455 765C454 764 454 763 453 762C452 762 451 761 450 760C450 759 449 758 448 757C447 756 447 755 446 754C445 754 444 753 444 752C443 751 442 750 441 749C441 748 440 747 439 746C439 745 438 744 437 743C436 742 436 741 435 740C434 740 433 739 433 738C432 737 432 736 431 734C430 733 430 732 429 732C428 731 427 730 426 729C426 728 425 727 425 726C424 725 424 723 423 722C423 721 422 720 422 719C421 718 420 717 420 716C419 715 418 714 417 713C417 712 416 711 416 710C415 708 415 707 415 706C414 704 414 703 413 702C413 701 412 700 411 699C410 698 410 698 409 696C409 695 408 694 408 693C407 691 407 690 407 689C406 687 406 686 406 684C406 683 405 682 404 681C404 680 403 679 403 678C402 677 402 676 401 674C401 673 400 672 400 670C400 669 399 668 399 666C399 665 399 663 398 662C398 661 398 659 398 658C397 657 396 656 396 654C396 653 395 652 395 651C394 649 394 648 394 647C394 645 393 644 393 642C393 641 392 640 392 638C392 637 392 636 392 634C391 632 392 631 391 629C391 628 391 627 390 625C390 623 390 622 390 620C390 618 391 617 390 615C390 613 390 612 390 610C390 609 389 608 389 606C389 605 388 604 388 602C388 601 388 600 388 598C387 596 387 595 388 593C388 591 388 590 388 589C388 587 388 586 388 584C388 583 388 582 388 580C387 578 388 577 388 575C388 573 388 572 388 570C388 568 388 567 388 565C388 563 387 562 388 560C388 558 388 557 388 556C389 554 389 553 389 551C389 550 389 548 390 547C390 546 390 544 390 543C391 541 390 540 390 538C391 536 390 535 390 533C391 531 391 530 391 529C392 527 391 526 392 524C392 522 392 521 392 520C392 518 392 516 392 515C393 514 393 512 393 511C394 510 394 508 394 507C395 506 395 505 396 503C396 502 396 501 397 499C397 498 398 497 398 496C398 494 399 493 399 491C399 490 399 488 400 487C400 486 400 484 400 483C401 482 401 480 402 479C402 478 403 477 403 476C404 475 404 474 405 472C406 471 406 470 406 469C407 468 407 466 407 465C408 464 408 462 408 461C409 460 409 458 410 457C410 456 411 455 412 454C412 453 413 452 414 451C414 450 415 449 415 448C415 446 416 445 416 444C417 442 417 441 418 440C418 439 419 438 420 437C420 436 421 435 422 434C423 433 423 432 424 431C424 430 425 429 425 428C426 427 427 426 427 425C428 424 429 423 430 422C430 421 431 420 431 419C432 418 432 417 433 416C434 415 435 414 435 413C436 412 437 411 438 410C438 409 439 408 440 407C440 406 441 405 442 404C443 403 443 402 444 402C445 401 446 400 446 399C447 398 448 397 448 396C449 395 450 394 451 393C451 392 453 392 454 391C454 390 455 389 456 388C457 387 457 386 458 386C459 385 460 384 461 384C462 383 463 382 464 381C464 380 465 379 466 378C466 377 467 376 468 376C469 375 470 374 471 373C472 372 472 371 473 370C474 370 475 369 476 368C477 368 478 367 479 366C480 366 481 365 482 364C482 363 483 362 484 362C485 361 486 360 487 360C488 359 489 358 490 357C490 356 490 355 490 354C489 353 487 353 486 352C485 352 484 352 483 352C481 352 480 352 478 353C477 353 475 353 474 354C473 354 471 353 470 353C468 353 467 353 465 352C463 352 462 352 460 352C458 352 457 353 455 352C453 352 452 352 450 352C449 352 447 352 446 352C445 351 443 351 442 351C441 350 439 350 438 350C437 349 436 349 434 348C433 347 433 347 431 346C430 346 429 345 428 345C427 344 426 344 424 343C423 343 422 342 420 342C419 342 418 341 417 340C416 340 415 339 414 338C413 338 412 337 411 337C410 336 409 335 408 335C407 334 406 333 405 332C404 332 403 331 402 330C401 330 400 329 399 329C398 328 397 327 396 327C395 326 394 325 393 324C392 324 391 323 390 322C390 321 389 321 388 320C387 319 386 318 385 318C384 317 383 316 382 315C382 314 381 313 380 312C379 312 378 311 378 310C377 309 376 308 375 307C374 306 374 305 373 304C372 304 372 303 371 302C370 301 369 300 368 299C368 298 367 297 366 296C366 295 365 294 365 293C364 292 363 291 363 290C362 289 361 288 361 287C360 286 360 285 359 283C359 282 358 281 358 280C358 278 357 277 357 276C357 274 357 272 356 271C356 270 356 268 356 267C355 266 354 265 354 264C353 263 353 261 353 260C353 259 353 257 354 256C354 255 355 254 355 253C356 251 356 251 357 249C357 248 357 247 358 245C358 244 358 243 359 241C359 240 359 239 360 238C361 236 361 235 362 234C363 234 364 233 364 232C365 231 366 230 367 230C368 229 368 227 369 227C370 226 371 225 372 225C373 224 375 224 376 224C377 223 379 223 380 223C382 222 383 223 385 222C387 222 388 222 390 222C392 223 393 222 395 223C396 223 398 223 399 224C400 224 401 224 402 225C404 226 405 226 406 227C406 228 407 229 408 229C409 230 410 231 411 231C412 232 413 233 414 234C415 234 415 236 416 237C416 238 416 239 417 241C417 242 418 243 418 244C419 245 420 246 420 247C421 248 422 249 422 251C422 252 422 253 422 254C422 256 421 257 421 258C420 259 419 260 419 261C418 262 418 263 417 264C416 266 416 267 415 268C415 269 414 270 413 270C412 271 411 272 410 272C408 272 407 273 406 273C404 274 403 274 402 274C401 275 400 275 398 276C396 276 395 276 393 276C391 275 390 275 389 275C388 274 387 273 386 273C384 273 383 272 382 272C380 272 378 271 377 272C376 272 374 272 373 272C372 273 371 274 370 275C370 276 369 278 370 279C370 280 371 281 371 282C372 283 372 284 373 285C374 286 374 288 375 289C375 290 376 291 376 292C377 293 378 294 378 295C379 296 380 297 381 298C382 298 383 299 383 300C384 301 385 302 386 303C386 304 387 305 388 306C389 306 390 307 390 308C391 309 392 309 393 310C394 311 395 312 396 312C397 313 398 314 399 314C400 315 401 316 402 317C403 318 404 318 405 319C406 319 407 320 408 320C410 320 411 321 412 322C413 322 414 323 415 323C416 324 417 324 419 325C420 325 421 326 423 326C424 326 426 326 427 326C428 327 430 327 431 327C433 328 434 327 436 328C438 328 439 328 441 328C443 327 444 327 445 327C447 326 448 327 450 326C452 326 453 326 454 326C456 325 457 325 458 324C459 324 460 323 461 322C462 322 463 321 464 321C466 321 467 320 468 320C470 320 471 319 472 319C473 318 474 318 475 317C476 316 477 315 478 314C479 314 480 313 481 312C482 312 483 311 484 311C485 310 486 309 487 308C488 308 489 307 490 306C490 305 491 305 492 304C493 303 494 302 495 302C496 301 496 300 497 299C498 298 499 297 500 296C500 295 502 295 502 294C503 293 504 292 504 291C505 290 506 289 506 288C507 287 508 286 509 286C510 285 511 284 511 283C512 282 512 280 513 279C514 278 514 277 515 276C516 276 517 275 517 274C518 273 518 272 519 270C519 269 520 268 520 266C520 265 521 264 521 263C522 262 522 261 523 260C524 258 524 257 525 256C525 255 526 254 526 252C526 251 526 250 526 248C527 246 526 245 526 243C526 241 527 240 526 238C526 236 527 235 526 233C526 232 526 230 525 229C525 228 524 227 524 226C523 225 522 224 522 223C521 222 521 220 520 219C520 218 519 217 519 216C518 215 518 213 517 212C516 211 516 210 515 210C514 209 513 208 512 207C512 206 511 205 511 204C510 203 509 202 508 201C508 200 507 199 506 198C505 198 504 197 504 196C503 195 502 194 501 194C500 193 499 192 498 192C497 191 496 190 495 190C494 189 493 188 492 187C492 186 491 185 490 184C489 184 488 183 488 182C488 181 488 179 488 178C489 177 490 176 491 176C492 176 494 176 496 176C497 176 498 177 498 178C499 179 500 179 501 180C502 181 503 182 504 182C505 183 507 183 508 184C509 184 510 185 511 185C512 186 513 186 514 187C515 188 516 189 517 189C518 190 520 190 521 191C522 191 524 191 525 192C526 192 528 192 529 192C531 193 532 193 533 194C534 194 535 195 536 195C538 195 539 196 541 196C542 196 543 196 544 196C546 196 547 196 549 196C551 195 552 196 554 195C555 195 557 195 558 194C559 194 560 194 562 193C563 193 564 193 566 192C567 192 568 192 570 191C571 191 572 191 573 190C574 189 575 188 576 188C577 187 578 186 579 185C580 185 581 184 582 184C583 183 585 183 586 182C587 182 588 181 588 180C589 179 590 178 591 178C592 177 593 176 594 175C594 174 595 173 596 172C597 172 598 171 598 170C599 169 599 168 600 167C601 166 601 165 602 164C603 163 604 162 604 161C605 160 606 159 607 158C607 157 608 156 608 154C608 153 609 152 609 151C610 150 611 149 611 148C612 147 613 146 613 145C614 144 614 143 615 141C615 140 615 139 616 137C616 135 616 134 616 132C616 130 616 129 616 127C616 125 616 124 616 122C615 120 616 119 615 117C615 116 615 114 614 113C614 112 614 111 613 110C612 108 612 107 611 106C610 105 610 104 609 103C609 102 608 101 608 100C607 99 606 98 606 97C605 96 604 95 603 94C602 94 601 93 600 92C600 91 599 90 598 89C597 88 597 88 596 87C595 86 594 85 593 85C592 84 591 83 590 83C589 82 588 81 587 81C586 80 585 80 583 79C582 79 581 78 580 78C578 78 577 77 576 76C575 76 574 75 573 75C572 74 570 74 569 74C568 73 566 73 564 73C563 73 561 72 560 72C559 73 557 73 556 74C555 74 554 74 553 75C552 76 551 77 550 78C550 79 550 81 550 82C549 83 550 85 550 86C551 88 551 89 552 90C552 91 553 92 554 93C554 94 555 95 555 96C556 97 557 98 557 99C558 100 558 102 558 103C559 104 559 106 560 107C560 108 560 110 560 112C559 114 559 115 559 116C559 118 558 119 558 120C557 121 556 122 556 123C555 124 554 125 553 126C552 126 551 127 550 128C549 129 548 129 547 130C546 131 545 131 544 132C543 132 542 133 541 134C540 134 538 134 537 134C536 134 534 134 533 133C532 133 531 132 530 132C529 131 528 130 527 130C526 129 525 129 524 128C522 127 521 127 520 126C520 125 519 124 518 124C517 123 516 122 516 121C515 120 514 119 513 118C512 117 512 116 511 115C511 114 511 113 510 111C510 110 509 109 509 108C509 106 508 105 508 104C508 102 507 100 508 99C508 98 508 96 508 95C509 94 509 92 510 91C510 90 510 88 511 87C511 86 511 84 512 83C512 82 513 81 514 80C515 80 516 79 516 78C517 77 518 76 519 76C520 75 521 74 522 73C522 72 523 71 524 70C525 70 526 69 527 68C528 68 529 67 530 66C531 66 532 65 533 65C534 64 536 64 537 63C538 63 540 63 541 62C542 62 544 62 545 62C546 61 548 61 549 61C550 60 552 60 554 60C555 60 556 60 558 60C559 60 560 60 562 61C563 61 565 61 566 62C567 62 569 62 570 62C572 62 573 63 574 63C576 63 577 64 578 64C580 64 581 65 582 65C584 65 585 66 586 67C587 67 588 68 589 68C590 69 591 70 592 70C593 71 595 71 596 72C597 72 598 73 599 74C600 74 601 75 602 76C602 77 603 78 604 78C605 79 606 79 607 80C608 81 609 81 610 82C611 83 612 84 613 84C614 85 615 86 616 87C616 88 617 88 618 89C619 90 620 91 621 92C622 92 622 93 623 94C624 95 625 96 626 97C626 98 627 99 628 100C629 100 630 101 630 102C631 103 632 104 632 105C633 106 633 107 634 108C635 109 636 110 636 111C637 112 638 113 639 114C640 115 640 116 640 117C641 118 641 120 642 121C642 122 643 123 644 124C645 125 645 125 646 127C646 128 647 129 647 130C647 132 647 133 648 135C648 136 648 137 648 139C649 141 648 142 648 144C648 146 648 147 648 149C648 151 648 152 648 154C648 156 648 157 648 159C648 161 649 162 648 164C648 166 648 167 648 168C648 170 648 172 648 173C647 174 647 176 647 178C647 179 646 180 646 181C645 182 645 183 644 184C643 185 643 186 642 188C641 189 641 190 640 191C640 192 639 193 639 194C638 195 637 196 636 197C636 198 635 199 634 200C633 200 632 201 632 202C631 203 630 204 630 205C629 206 628 207 627 208C626 208 625 209 624 210C623 210 622 211 622 212C621 213 620 214 619 214C618 215 617 215 616 216C614 217 613 217 612 218C611 218 610 218 608 219C607 220 606 220 605 221C604 221 603 222 602 222C600 222 599 223 598 223C596 223 595 223 593 224C591 224 590 224 588 224C586 224 585 224 583 224C581 224 580 224 578 224C576 224 575 224 573 224C571 223 570 223 568 223C567 223 566 222 564 222C563 222 562 221 561 221C559 220 558 220 557 219C556 219 555 218 554 218C553 217 552 217 550 216C549 216 548 215 546 215C545 215 544 214 543 213C542 213 541 212 540 212C539 211 537 210 536 210C535 211 534 212 534 213C534 214 535 215 536 216C536 217 537 218 537 219C538 220 539 221 540 222C540 223 541 224 542 225C542 226 543 227 544 228C544 229 545 230 545 231C546 232 547 233 548 234C548 235 549 236 550 237C550 238 551 239 551 240C552 242 552 243 552 244C552 246 553 247 553 248C553 250 554 251 554 252C555 253 556 254 556 255C557 256 557 258 558 259C558 260 558 261 558 263C559 265 558 266 558 268C559 270 559 271 559 272C559 274 559 275 559 277C559 278 559 280 558 281C558 282 558 284 558 286C558 287 558 289 558 290C557 291 557 293 556 294C556 295 555 296 555 297C554 298 554 299 553 301C553 302 552 303 552 304C552 306 551 307 551 308C550 310 550 310 549 311C548 312 547 313 546 314C546 315 545 316 544 317C544 318 543 319 542 320C542 321 541 323 542 324C542 325 543 326 544 326C545 327 548 327 549 326C550 326 551 326 552 325C553 324 554 323 555 322C556 322 557 321 558 321C560 321 561 320 563 320C564 320 565 320 567 319C568 319 569 319 571 318C572 318 573 317 574 317C576 316 577 316 578 316C579 315 581 315 582 314C583 314 584 314 586 313C587 313 589 313 590 312C591 312 593 312 594 312C596 311 597 312 599 312C601 311 602 312 604 312C606 311 607 311 608 311C610 311 611 311 613 310C615 310 616 311 618 310C620 310 622 310 623 310C624 310 625 310 626 310C627 310 628 310 630 310C631 310 632 310 634 310C636 311 637 310 639 310C641 310 642 310 644 310C646 310 647 310 649 310C651 310 652 310 654 310C656 310 657 310 659 310C661 311 662 311 663 311C665 311 666 311 668 312C670 312 671 311 673 312C675 312 676 312 678 312C679 312 681 312 682 313C683 313 685 313 686 314C687 314 688 314 690 315C691 315 692 316 694 316C695 316 696 317 697 317C699 318 700 318 701 318C702 319 704 319 705 319C706 320 708 320 710 320C711 320 712 321 714 321C715 321 716 322 717 323C718 324 719 324 720 325C721 325 722 326 723 326C724 327 726 327 727 327C728 328 730 328 731 328C733 329 734 329 735 330C736 330 737 331 738 332C738 333 739 333 740 334C742 335 743 335 744 336C745 336 746 336 748 337C749 338 750 338 750 339C751 340 752 341 753 342C754 342 755 343 756 343C757 344 759 344 760 345C761 346 762 346 762 347C763 348 764 349 765 349C766 350 767 351 768 351C769 352 771 352 772 353C773 354 773 354 774 355C775 356 776 357 776 358C777 359 778 359 779 360C780 361 781 361 782 362C783 363 784 364 784 365C785 366 786 366 787 367C788 368 789 369 790 370C791 370 792 371 792 372C793 373 794 374 795 375C796 376 797 376 798 377C798 378 799 379 800 380C801 380 802 381 802 382C803 383 804 384 805 384C806 385 807 386 807 387C808 388 809 389 809 390C810 391 811 392 812 392C813 393 814 394 814 395C815 396 816 397 816 398C817 399 818 400 818 401C819 402 820 403 821 404C822 405 822 406 823 407C823 408 824 409 824 410C825 411 826 412 826 413C827 414 828 415 829 416C830 416 830 417 831 418C832 420 832 421 833 422C833 423 834 424 834 425C835 426 836 427 837 428C838 429 838 430 838 431C839 432 839 434 840 435C840 436 841 437 841 438C842 439 843 440 844 441C844 442 845 443 845 444C846 445 847 446 847 448C847 449 848 450 848 452C848 453 849 454 849 455C850 456 851 457 851 458C852 459 853 460 853 461C854 462 854 463 855 465C855 466 855 468 856 469C856 470 856 472 857 473C857 474 857 476 858 477C858 478 859 479 860 480C860 481 861 482 862 483C862 484 862 486 862 487C863 488 863 490 863 491C864 493 864 494 864 496C864 497 864 499 865 500C865 501 865 502 866 504C866 505 867 506 867 507C868 509 868 510 868 511C869 512 869 514 869 515C870 516 870 518 870 519C870 521 870 522 871 524C871 525 871 526 872 528C872 530 871 531 872 533C872 535 872 536 872 538C872 539 872 540 872 542C873 544 872 545 872 547C872 549 872 550 872 552C873 554 873 555 873 557C873 558 873 560 874 561C874 562 874 564 874 565C875 566 875 568 875 569C876 571 875 572 876 574C876 576 876 577 876 579C876 581 876 582 876 584C876 586 876 587 876 589C875 591 875 592 875 594C875 595 875 597 874 598C874 599 874 601 874 602C874 604 874 605 874 607C873 609 873 610 873 612C873 613 873 614 872 616C872 618 873 619 872 621C872 623 872 624 872 626C872 627 872 628 872 630C871 632 872 633 872 635C871 637 871 638 871 640C871 641 871 642 870 644C870 645 870 647 870 648C869 649 869 651 868 652C868 653 868 654 867 656C867 657 866 658 866 660C866 661 865 662 865 664C865 665 865 667 864 668C864 669 864 671 864 672C863 673 863 675 863 676C862 677 862 679 862 680C861 682 861 683 860 684C860 685 859 686 859 687C858 688 857 689 857 690C857 692 856 693 856 694C856 696 855 697 855 698C854 700 854 701 854 702C853 703 853 704 852 705C851 706 850 707 850 708C849 709 849 710 848 712C848 713 848 714 847 716C847 717 846 718 846 719C845 720 844 721 843 722C842 722 841 723 841 724C840 725 840 727 840 728C839 730 839 731 838 732C838 733 837 734 836 734C835 735 834 736 834 737C833 738 833 739 832 740C831 742 831 743 830 744C830 745 829 746 828 746C827 747 826 748 826 749C825 750 824 751 824 752C823 753 822 754 822 755C821 756 820 757 819 758C818 759 817 759 817 760C816 761 815 762 814 763C814 764 813 765 812 766C812 767 810 767 810 768C809 769 808 770 807 771C806 772 806 773 805 774C804 774 803 775 802 776C801 776 800 777 800 778C799 779 798 780 798 781C797 782 796 783 795 784C794 784 793 785 792 786C791 786 790 787 789 788C788 788 787 789 786 790C785 791 784 791 783 792C782 793 781 793 780 794C780 795 779 796 778 796C777 797 776 798 775 799C774 799 773 800 772 800C771 801 770 802 769 802C768 803 767 804 766 805C766 806 764 806 763 807C762 807 761 808 760 808C759 809 758 810 757 810C756 811 755 812 754 812C753 813 752 814 751 814C750 815 748 815 747 816C746 816 745 816 744 817C743 818 742 818 741 819C740 820 739 821 738 821C737 822 736 823 734 823C733 823 732 824 730 824C729 824 728 825 727 825C726 826 725 827 724 827C723 828 722 829 721 829C720 830 718 830 717 831C716 831 714 831 713 832C712 832 711 833 710 833C708 833 707 834 706 834C705 835 704 835 702 836C701 837 700 837 699 838C698 838 697 839 696 840C695 840 694 841 694 842C694 844 694 845 694 847C693 849 694 850 694 852C694 853 694 854 694 856C694 857 694 858 694 860C693 862 694 863 694 865C694 867 694 868 694 870C694 872 693 873 694 875C694 877 694 878 694 880C694 881 694 882 694 884C695 886 694 887 694 889C695 891 695 892 695 894C695 895 695 896 696 898C696 900 695 901 696 903C696 905 695 906 696 908C696 909 696 911 696 912C697 913 697 915 698 916C698 917 699 918 699 919C700 920 701 921 701 922C701 924 702 925 702 926C703 928 703 929 704 930C704 931 704 932 705 933C706 934 707 935 708 936C708 937 709 938 710 938C711 939 711 940 712 942C713 942 713 944 714 944C715 945 716 946 716 947C717 948 718 949 719 949C720 950 721 951 722 952C723 952 724 953 725 954C726 954 727 955 728 956C728 957 729 957 730 958C732 959 733 959 734 960C735 960 736 960 738 961C739 961 740 962 741 962C743 963 743 963 744 964C745 965 746 965 748 966C749 967 750 967 751 967C753 967 754 967 756 968C757 968 758 968 760 968C762 969 763 968 765 968C767 969 768 968 770 969C771 969 773 969 774 970C775 970 777 970 778 971C779 971 780 971 782 971C783 971 784 970 786 970C787 970 788 970 790 970C792 969 793 970 795 969C796 969 798 969 799 968C800 968 802 968 803 968C805 968 806 968 808 968C810 967 811 967 812 967C814 967 815 966 816 966C818 966 819 966 820 966C821 967 822 968 823 969C823 970 824 972 824 973C823 974 823 976 822 977C822 978 821 979 820 980C819 980 818 981 817 982C816 982 815 983 814 983C812 984 811 984 810 984C809 985 808 985 806 986C805 987 804 987 803 988C802 988 801 989 800 990C799 990 797 990 796 990C795 991 793 991 792 991C790 992 789 991 787 992C785 992 784 992 782 992C781 992 780 992 778 993C777 993 776 994 774 994C773 994 772 995 770 995C769 995 768 995 766 996C764 996 763 995 761 996C759 996 758 995 756 996C755 996 753 996 752 997C751 997 749 997 748 998C747 998 745 998 744 998C743 998 743 998 742 998ZM653 833C654 833 655 832 657 832C658 832 660 832 661 832C662 831 664 831 665 831C667 831 668 830 669 830C670 829 671 829 672 828C674 827 674 827 676 826C677 825 678 825 679 824C680 824 681 823 682 823C684 822 685 822 685 821C686 820 687 819 688 818C688 817 689 817 690 816C691 815 693 815 693 814C694 813 695 812 695 811C696 810 697 809 698 808C698 807 699 806 700 806C701 805 701 804 702 802C703 801 703 800 704 799C704 798 704 797 705 796C706 794 706 793 707 792C708 792 708 791 709 790C710 789 710 788 711 786C712 785 712 784 712 783C713 781 713 780 714 779C714 778 715 777 715 776C716 775 716 774 717 772C718 771 718 770 719 769C719 768 719 767 720 765C720 764 720 763 721 761C721 760 722 759 722 758C722 756 723 755 723 754C724 753 724 752 725 750C726 749 726 748 726 747C727 746 727 744 727 743C727 741 727 739 728 738C728 737 728 735 728 734C729 733 729 731 729 730C730 728 730 727 730 726C731 725 731 724 732 722C732 721 733 720 733 718C733 717 733 715 734 714C734 713 734 711 734 710C735 708 735 707 735 705C735 704 735 703 736 701C736 699 735 698 736 696C736 694 736 693 736 691C736 690 736 688 736 687C737 686 737 684 737 682C737 681 737 680 738 678C738 676 738 675 738 673C738 672 739 671 739 670C740 668 740 667 740 666C740 664 740 663 740 661C740 660 739 658 740 657C740 656 740 654 740 653C741 651 740 650 740 648C741 646 740 645 741 643C741 642 741 640 742 639C742 638 742 637 742 635C743 633 742 632 742 630C742 628 742 627 742 625C742 623 742 622 742 620C742 618 742 617 742 615C742 613 742 612 742 610C742 608 742 607 742 605C742 603 742 602 742 600C742 598 742 597 742 595C742 593 742 592 742 590C742 588 742 587 742 585C742 583 742 582 742 580C742 578 742 577 742 575C742 573 743 572 742 570C742 568 742 567 742 565C742 564 742 562 742 561C741 560 741 558 741 557C740 555 740 554 740 552C740 551 740 550 740 548C739 546 739 545 740 543C740 541 740 540 740 539C740 537 740 536 740 534C740 533 740 531 740 530C739 529 739 527 739 526C739 524 738 523 738 522C738 520 738 519 738 517C737 515 738 514 738 512C737 510 737 509 737 508C737 506 737 504 736 503C736 502 736 500 736 498C736 497 736 496 736 494C735 492 736 491 736 489C736 487 736 486 736 484C735 482 735 481 735 480C735 478 735 476 734 475C734 474 734 472 734 470C734 469 734 468 733 466C733 465 733 464 732 462C732 461 731 460 731 458C731 457 730 456 730 455C729 453 729 452 729 451C729 449 729 448 728 446C728 444 728 443 728 442C728 440 728 438 728 437C727 436 727 434 727 432C727 431 727 430 726 428C726 427 725 426 725 424C725 423 724 422 723 421C723 420 722 419 722 418C722 416 721 415 721 414C720 412 720 411 720 409C720 408 720 406 720 405C719 404 719 402 719 401C718 400 718 398 717 397C717 396 716 395 716 394C715 393 714 392 714 391C713 390 713 388 713 387C712 386 712 384 712 383C711 382 711 380 710 379C710 378 709 377 709 376C708 375 708 374 707 372C706 371 706 370 705 369C705 368 704 367 704 366C703 365 703 364 702 362C701 361 701 360 700 360C699 359 698 358 698 357C697 356 696 355 696 354C695 353 694 352 694 351C693 350 692 349 691 348C690 347 690 346 689 346C688 345 687 344 686 344C685 343 684 342 683 341C682 340 681 340 680 339C680 338 679 337 678 337C677 336 676 336 674 335C673 334 672 334 672 333C671 332 670 331 669 330C668 330 667 329 666 329C664 328 663 328 662 328C660 328 658 328 657 327C656 327 655 327 653 326C652 326 651 326 649 325C648 325 647 324 645 324C644 324 643 324 641 324C639 323 638 324 636 324C634 323 633 323 632 323C631 323 629 323 628 323C626 324 625 324 624 324C622 324 621 325 620 325C618 326 617 326 616 326C614 326 612 326 611 327C610 327 608 327 607 328C606 328 605 328 604 329C602 330 601 330 600 331C599 332 598 332 597 333C596 334 595 334 594 334C593 335 592 335 590 336C589 337 588 337 588 338C587 339 586 340 585 340C584 341 583 342 582 343C581 343 580 344 579 344C578 345 577 346 576 347C576 348 575 349 575 350C574 351 573 352 572 353C572 354 571 355 570 356C569 356 569 357 568 358C567 360 567 361 566 362C566 363 565 364 564 365C564 366 563 367 562 368C561 368 560 369 560 370C559 371 559 373 558 374C558 375 558 376 557 377C556 378 555 379 554 380C554 381 553 382 553 383C552 384 552 386 552 387C551 388 551 390 550 391C550 392 549 393 549 394C548 395 547 396 546 397C546 398 545 399 545 400C545 402 544 403 544 404C543 406 543 407 543 408C543 410 543 411 542 413C542 414 541 415 541 416C540 417 540 418 539 420C538 421 538 422 538 423C537 424 537 426 536 427C536 428 536 430 536 431C535 433 536 434 535 436C535 437 535 439 534 440C534 441 534 443 534 444C534 446 533 447 533 448C532 449 532 450 531 452C531 453 530 454 530 456C530 457 530 459 530 460C529 461 529 463 529 464C529 466 529 467 528 469C528 470 528 471 528 473C527 475 528 476 528 478C527 480 528 481 527 483C527 484 527 486 526 487C526 488 527 490 526 492C526 493 526 494 526 496C525 498 526 499 526 501C525 503 525 504 525 505C524 506 524 508 524 509C524 511 524 512 524 514C523 516 524 517 524 519C524 521 524 522 524 524C524 526 524 527 524 529C523 531 523 532 523 533C522 535 522 536 522 538C522 539 522 541 522 542C521 543 521 545 521 546C521 548 521 549 520 551C520 553 520 554 520 556C520 558 520 559 520 561C520 563 520 564 520 566C520 568 520 569 520 571C520 573 520 574 520 576C520 578 520 579 520 581C520 583 520 584 520 586C520 588 520 589 520 591C520 593 520 594 520 596C521 598 520 599 521 601C521 602 521 604 522 605C522 606 522 608 522 609C522 611 523 612 523 614C523 615 523 616 524 618C524 620 524 621 524 623C523 625 524 626 523 628C523 629 522 631 522 632C522 633 523 635 523 636C524 637 524 638 525 640C525 641 525 642 526 644C526 646 526 647 526 649C526 651 525 652 526 654C526 656 525 657 526 659C526 660 526 662 526 663C527 664 527 666 527 667C527 669 527 670 528 672C528 674 527 675 528 677C528 679 528 680 528 681C528 683 528 684 529 686C529 687 529 689 530 690C530 691 530 693 530 694C530 696 530 697 531 699C531 700 532 701 532 702C532 704 533 705 533 706C534 708 534 709 534 710C535 711 535 713 535 714C535 716 535 718 536 719C536 720 536 722 536 723C536 725 536 726 537 728C537 729 538 730 538 732C538 733 539 734 540 735C540 736 541 737 541 738C542 740 542 741 542 742C543 743 543 745 543 746C544 748 544 749 544 750C544 752 545 753 545 754C546 755 546 756 547 758C548 759 548 760 549 761C549 762 550 763 550 764C551 766 551 767 551 768C552 770 552 771 552 772C553 773 553 774 554 776C555 777 555 778 556 779C557 780 557 781 558 782C558 783 559 784 559 785C560 786 560 788 561 789C561 790 562 791 562 792C563 793 564 794 565 795C566 796 566 797 567 798C567 799 568 800 568 801C569 802 570 803 571 804C572 804 573 805 574 806C574 807 575 808 576 809C576 810 577 811 578 812C578 813 579 814 580 814C581 815 582 815 583 816C584 817 585 818 586 818C587 819 588 820 588 821C589 822 590 822 592 823C593 824 594 824 595 824C597 825 598 825 599 826C600 826 601 827 602 828C603 828 604 829 605 830C606 830 607 830 609 831C610 831 612 831 613 832C614 832 616 832 617 832C619 832 620 832 622 832C624 833 625 832 627 832C629 833 630 833 631 833C633 833 635 834 636 834C637 833 638 833 640 833C641 833 641 833 642 833C644 833 645 833 647 834C649 834 651 833 652 833C653 833 652 833 653 833Z" fill="#fffdf9" fill-rule="evenodd"/>
</svg>
