<svg xmlns="http://www.w3.org/2000/svg" viewBox="0 0 600 420" role="img" aria-label="La veranda sulla vallata">
  <defs>
    <linearGradient id="vsky" x1="0" y1="0" x2="0" y2="1">
      <stop offset="0" stop-color="#f6d8a8"/>
      <stop offset="1" stop-color="#e0a668"/>
    </linearGradient>
  </defs>
  <rect width="600" height="420" fill="url(#vsky)"/>
  <circle cx="430" cy="130" r="40" fill="#fff3d6" opacity=".9"/>
  <path d="M0 250 Q160 200 320 240 T600 225 V420 H0 Z" fill="#8a9a5b"/>
  <path d="M0 300 Q220 260 440 295 T600 290 V420 H0 Z" fill="#6b7a45"/>
  <g stroke="#4c5a2e" stroke-width="4" opacity=".5">
    <path d="M180 330 Q380 300 580 325"/>
    <path d="M200 350 Q390 322 570 345"/>
    <path d="M225 372 Q400 346 560 366"/>
  </g>
  <!-- pergola frame -->
  <rect x="0" y="0" width="26" height="420" fill="#6e4a2f"/>
  <rect x="0" y="0" width="600" height="24" fill="#6e4a2f"/>
  <rect x="0" y="24" width="600" height="8" fill="#8a6240"/>
  <!-- hanging vine -->
  <g fill="#5a7a3a">
    <ellipse cx="90" cy="50" rx="24" ry="14"/><ellipse cx="150" cy="42" rx="28" ry="15"/><ellipse cx="220" cy="52" rx="24" ry="13"/>
    <ellipse cx="300" cy="44" rx="28" ry="15"/><ellipse cx="380" cy="52" rx="24" ry="13"/><ellipse cx="460" cy="44" rx="26" ry="14"/><ellipse cx="540" cy="50" rx="24" ry="13"/>
  </g>
  <!-- table with wine -->
  <ellipse cx="150" cy="330" rx="85" ry="20" fill="#f3ecdf"/>
  <rect x="140" y="330" width="20" height="70" fill="#6e4a2f"/>
  <rect x="118" y="278" width="14" height="46" rx="5" fill="#2b2620"/>
  <path d="M175 292 q1 26 19 30 q18 -4 19 -30 z" fill="#8a2f43"/>
  <line x1="194" y1="322" x2="194" y2="342" stroke="#2b2620" stroke-width="3"/>
</svg>
